<?xml version="1.0" encoding="utf-8"?>
<!-- Generator: Adobe Illustrator 25.4.1, SVG Export Plug-In . SVG Version: 6.00 Build 0)  -->
<svg version="1.1" id="Layer_1" xmlns="http://www.w3.org/2000/svg" xmlns:xlink="http://www.w3.org/1999/xlink" x="0px" y="0px"
	 viewBox="0 0 454 434" style="enable-background:new 0 0 454 434;" xml:space="preserve">
<style type="text/css">
	.st0{opacity:0.25;clip-path:url(#SVGID_00000105398328580725312780000003298006637507248515_);}
	.st1{fill:#FF87AB;}
</style>
<g>
	<defs>
		<rect id="SVGID_1_" width="454" height="434"/>
	</defs>
	<clipPath id="SVGID_00000044141311952960151830000014541805071509825452_">
		<use xlink:href="#SVGID_1_"  style="overflow:visible;"/>
	</clipPath>
	<g style="opacity:0.25;clip-path:url(#SVGID_00000044141311952960151830000014541805071509825452_);">
		<path class="st1" d="M361.9,81.3c2.7,4.8,9.2,8.4,14.8,6.8c4.4-1.2,7.7-5.3,8.7-9.6c1-4.1-0.2-8.1-3.5-10
			c-1.1-4.8-8.2-5.1-12.7-3.6C362.4,67.1,358.3,74.8,361.9,81.3z"/>
		<path class="st1" d="M2.3,201c-0.5,3.6,1.5,7.4,4.2,9.6c2.9,2.4,6.8,2.3,9.3,0c2.9-1,4.8-3.8,4.1-7.4c-0.7-3.9-4-7.7-7.9-8.6
			C7.6,193.7,2.9,196.4,2.3,201z"/>
		<path class="st1" d="M290.5,126.6c-1.8,5.1,2,9.7,6.4,11.7c4.2,2.1,8.8,0.6,10.5-4c1.5-4,0.1-8.9-3.7-11.1
			C299.4,120.6,292.4,121.2,290.5,126.6z"/>
		<path class="st1" d="M296.7,88.9c3,1.7,6.6,1.4,8.8-1.4c2.2-2.8,0.8-6.6-2.1-8.3c-2.9-1.7-6.7-1.1-8.8,1.6
			C292.7,83.6,293.8,87.3,296.7,88.9z"/>
		<path class="st1" d="M342.6,112.7c-3.2-0.3-6.1,2-6.4,5.3c-0.2,3,1.6,5.7,4.4,6.7c0.6,0.3,1.3,0.4,2,0.2c2.8-0.8,5.1-3.1,5.3-6.1
			C348.1,115.5,345.8,113,342.6,112.7z"/>
		<path class="st1" d="M287.2,41.4c-3.3-0.3-6.1,2-6.4,5.3c-0.2,3,1.6,5.7,4.4,6.7c0.6,0.3,1.3,0.4,2,0.2c2.8-0.8,5.1-3.1,5.3-6.1
			C292.7,44.3,290.4,41.7,287.2,41.4z"/>
		<path class="st1" d="M328.9,69c3.6,2.4,7.3-3.2,3.7-5.6C329.1,61,325.3,66.6,328.9,69z"/>
		<path class="st1" d="M325.6,163.5c-3.6-2.4-7.3,3.2-3.7,5.6C325.5,171.5,329.2,165.9,325.6,163.5z"/>
		<path class="st1" d="M169.2,33.9c-3.6-2.4-7.3,3.2-3.7,5.6C169.1,41.9,172.8,36.3,169.2,33.9z"/>
		<path class="st1" d="M95.4,106.3c-3.6-2.4-7.3,3.2-3.7,5.6C95.2,114.3,99,108.7,95.4,106.3z"/>
		<path class="st1" d="M149.1,69.9c-3.6-2.4-7.3,3.2-3.7,5.6C149,77.9,152.7,72.3,149.1,69.9z"/>
		<path class="st1" d="M252.6,142c3.6,2.4,7.3-3.2,3.7-5.6C252.7,134,249,139.6,252.6,142z"/>
		<path class="st1" d="M352.7,200.5c-1,2.9,0.2,6.2,2.8,7.7c2.5,1.5,5.2,0.8,6.9-1.1c0.8-0.1,1.5-0.4,2.2-1c1.4-1.2,1.8-3.5,1.5-5.2
			c-0.5-3-3.4-5.1-6.3-5.3C356.6,195.4,353.7,197.5,352.7,200.5z"/>
		<path class="st1" d="M293.6,207.2c-1,2.9,0.2,6.2,2.8,7.7c2.5,1.5,5.2,0.8,6.9-1.1c0.8-0.1,1.5-0.4,2.2-1c1.4-1.2,1.8-3.5,1.5-5.2
			c-0.5-3-3.4-5.1-6.3-5.3C297.5,202.1,294.6,204.2,293.6,207.2z"/>
		<path class="st1" d="M405.8,191.3c-1.1,4.5,1.2,8.7,4.9,11.1c0.2,0.1,0.3,0.3,0.5,0.3c0.3,0.1,0.5,0.3,0.8,0.4c0,0,0,0,0,0
			c0,0,0,0,0,0c2,0.9,4.2,1.2,6.3,0.2c1.9-0.9,3.2-2.7,3.7-4.7c1.3-4.5-0.7-9.5-5-11.5C412.7,184.9,407,186,405.8,191.3z"/>
		<path class="st1" d="M21.5,269.4c0.2,0.5,0.4,0.9,0.6,1.3c0.2,0.5,0.6,0.9,1,1.2c0.1,0.3,0.3,0.7,0.6,0.9c0.6,0.6,1.4,1.1,2.3,1.1
			c2.3,0.1,4.8-0.3,6.2-2.3c1.3-1.9,0.6-4.3-0.8-6c-1-1.2-2.4-2.1-3.8-2.8c-1.7-0.8-3.8-0.8-5.2,0.5c-1.2,1.1-1.5,2.6-1.3,4.2
			C21.1,268.2,21.3,268.8,21.5,269.4z"/>
		<path class="st1" d="M373.2,134.1c0.2,0.5,0.4,0.9,0.6,1.3c0.2,0.5,0.6,0.9,1,1.2c0.1,0.3,0.3,0.7,0.6,0.9
			c0.6,0.6,1.4,1.1,2.3,1.1c2.3,0.1,4.8-0.3,6.2-2.3c1.3-1.9,0.6-4.3-0.8-6c-1-1.2-2.4-2.1-3.8-2.8c-1.7-0.8-3.8-0.8-5.2,0.5
			c-1.2,1.1-1.5,2.6-1.3,4.2C372.8,133,373,133.5,373.2,134.1z"/>
		<path class="st1" d="M109.6,71.4c0.2,0.5,0.4,0.9,0.6,1.3c0.2,0.5,0.6,0.9,1,1.2c0.1,0.3,0.3,0.7,0.6,0.9c0.6,0.6,1.4,1.1,2.3,1.1
			c2.3,0.1,4.8-0.3,6.2-2.3c1.3-1.9,0.6-4.3-0.8-6c-1-1.2-2.4-2.1-3.8-2.8c-1.7-0.8-3.8-0.8-5.2,0.5c-1.2,1.1-1.5,2.6-1.3,4.2
			C109.2,70.3,109.4,70.9,109.6,71.4z"/>
		<path class="st1" d="M5.2,241.2c-3.6-2.4-7.3,3.2-3.7,5.6C5.1,249.1,8.8,243.6,5.2,241.2z"/>
		<path class="st1" d="M70.4,338.5c4.3,3.1,9.6,1.2,12.1-3.1c2.6-4.5,1.9-10.4-2.5-13.5c-4.5-3.1-10.9-2.4-13.8,2.5
			C63.2,329.5,65.6,335.5,70.4,338.5z"/>
		<path class="st1" d="M22.8,121.1c4.3,3.1,9.6,1.2,12.1-3.1c2.6-4.5,1.9-10.4-2.5-13.5c-4.5-3.1-10.9-2.4-13.8,2.5
			C15.6,112.1,18.1,118.1,22.8,121.1z"/>
		<path class="st1" d="M424.2,277.5c4.3,3.1,9.6,1.2,12.1-3.1c2.6-4.5,1.9-10.4-2.5-13.5c-4.5-3.1-10.9-2.4-13.8,2.5
			C417,268.5,419.4,274.5,424.2,277.5z"/>
		<path class="st1" d="M15.7,328.4c0.6,4,4.5,6.4,8.3,5.8c1.2-0.2,2.1-1.1,2.5-2.1c2.1-1.2,3.3-3.4,2.6-6c-0.8-2.9-3.5-5.1-6.6-5.2
			C18.5,320.7,15.1,324.4,15.7,328.4z"/>
		<path class="st1" d="M232.7,7.6c0.6,4,4.5,6.4,8.3,5.8c1.2-0.2,2.1-1.1,2.5-2.1c2.1-1.2,3.3-3.4,2.6-6c-0.8-2.9-3.5-5.1-6.6-5.2
			C235.5-0.1,232.1,3.6,232.7,7.6z"/>
		<path class="st1" d="M57.1,291.2c-0.1,0.5-0.2,1.1-0.2,1.6c0,0.5,0,1.1,0.1,1.6c0,0.3,0.1,0.5,0.1,0.8c0.3,1.1,0.7,1.9,1.3,2.8
			c0.1,0.1,0.1,0.2,0.2,0.2c0.3,0.3,0.6,0.6,0.9,0.8c0.3,0.2,0.7,0.4,1.1,0.5c0.1,0,0.2,0.1,0.3,0.1c1.4,0.4,2.7,0.2,4-0.3
			c0.6-0.2,1.1-0.6,1.6-1c0.4-0.3,0.7-0.6,1.1-0.9c0.2-0.2,0.4-0.4,0.6-0.6c0.4-0.3,0.6-0.7,0.8-1.1c0.2-0.4,0.4-0.8,0.4-1.3
			c0-0.8-0.2-1.7-0.8-2.3c-0.1-0.2-0.1-0.3-0.2-0.4c-0.7-1-1.3-2.1-2.3-2.9c-0.4-0.4-0.9-0.9-1.4-1.1c-0.8-0.4-1.4-0.7-2.3-0.8
			c-1.2-0.2-2.5,0.3-3.4,1.1c-0.8,0.6-1.3,1.6-1.7,2.5C57.2,290.7,57.1,290.9,57.1,291.2z"/>
		<path class="st1" d="M108.9,260.3c-0.1,0.5-0.2,1.1-0.2,1.6c0,0.5,0,1.1,0.1,1.6c0,0.3,0.1,0.5,0.1,0.8c0.3,1.1,0.7,1.9,1.3,2.8
			c0.1,0.1,0.1,0.2,0.2,0.2c0.3,0.3,0.6,0.6,0.9,0.8c0.3,0.2,0.7,0.4,1.1,0.5c0.1,0,0.2,0.1,0.3,0.1c1.4,0.4,2.7,0.2,4-0.3
			c0.6-0.2,1.1-0.6,1.6-1c0.4-0.3,0.7-0.6,1.1-0.9c0.2-0.2,0.4-0.4,0.6-0.6c0.4-0.3,0.6-0.7,0.8-1.1c0.2-0.4,0.4-0.8,0.4-1.3
			c0-0.8-0.2-1.7-0.8-2.3c-0.1-0.2-0.1-0.3-0.2-0.4c-0.7-1-1.3-2.1-2.3-2.9c-0.4-0.4-0.9-0.9-1.4-1.1c-0.8-0.4-1.4-0.7-2.3-0.8
			c-1.2-0.2-2.5,0.3-3.4,1.1c-0.8,0.6-1.3,1.6-1.7,2.5C109.1,259.8,109,260,108.9,260.3z"/>
		<path class="st1" d="M127.8,174.9c-0.1,0.5-0.2,1.1-0.2,1.6c0,0.5,0,1.1,0.1,1.6c0,0.3,0.1,0.5,0.1,0.8c0.3,1.1,0.7,1.9,1.3,2.8
			c0.1,0.1,0.1,0.2,0.2,0.2c0.3,0.3,0.6,0.6,0.9,0.8c0.3,0.2,0.7,0.4,1.1,0.5c0.1,0,0.2,0.1,0.3,0.1c1.4,0.4,2.7,0.2,4-0.3
			c0.6-0.2,1.1-0.6,1.6-1c0.4-0.3,0.7-0.6,1.1-0.9c0.2-0.2,0.4-0.4,0.6-0.6c0.4-0.3,0.6-0.7,0.8-1.1c0.2-0.4,0.4-0.8,0.4-1.3
			c0-0.8-0.2-1.7-0.8-2.3c-0.1-0.2-0.1-0.3-0.2-0.4c-0.7-1-1.3-2.1-2.3-2.9c-0.4-0.4-0.9-0.9-1.4-1.1c-0.8-0.4-1.4-0.7-2.3-0.8
			c-1.2-0.2-2.5,0.3-3.4,1.1c-0.8,0.6-1.3,1.6-1.7,2.5C128,174.4,127.9,174.7,127.8,174.9z"/>
		<path class="st1" d="M244.6,58.7c-0.1,0.5-0.2,1.1-0.2,1.6c0,0.5,0,1.1,0.1,1.6c0,0.3,0.1,0.5,0.1,0.8c0.3,1.1,0.7,1.9,1.3,2.8
			c0.1,0.1,0.1,0.2,0.2,0.2c0.3,0.3,0.6,0.6,0.9,0.8c0.3,0.2,0.7,0.4,1.1,0.5c0.1,0,0.2,0.1,0.3,0.1c1.4,0.4,2.7,0.2,4-0.3
			c0.6-0.2,1.1-0.6,1.6-1c0.4-0.3,0.7-0.6,1.1-0.9c0.2-0.2,0.4-0.4,0.6-0.6c0.4-0.3,0.6-0.7,0.8-1.1c0.2-0.4,0.4-0.8,0.4-1.3
			c0-0.8-0.2-1.7-0.8-2.3c-0.1-0.2-0.1-0.3-0.2-0.4c-0.7-1-1.3-2.1-2.3-2.9c-0.4-0.4-0.9-0.9-1.4-1.1c-0.8-0.4-1.4-0.7-2.3-0.8
			c-1.2-0.2-2.5,0.3-3.4,1.1c-0.8,0.6-1.3,1.6-1.7,2.5C244.7,58.2,244.7,58.5,244.6,58.7z"/>
		<path class="st1" d="M53.8,234.8c1.2,0.9,2.5,1.3,3.9,1.4c1,0.7,2.3,0.7,3.5,0.3c3.7-1.3,5.7-5.4,4.8-9.1c-1-4-4.8-6.6-8.9-5.7
			c-3.9,0.9-6.3,4.6-5.9,8.5C51.4,232,52.4,233.6,53.8,234.8z"/>
		<path class="st1" d="M58.6,261.7c3.6,2.4,7.3-3.2,3.7-5.6C58.7,253.7,55,259.3,58.6,261.7z"/>
		<path class="st1" d="M135,135.4c3.6,2.4,7.3-3.2,3.7-5.6C135.1,127.4,131.4,133,135,135.4z"/>
		<path class="st1" d="M59.7,100.9c3.6,2.4,7.3-3.2,3.7-5.6C59.8,93,56.1,98.5,59.7,100.9z"/>
		<path class="st1" d="M347.4,36.5c3.6,2.4,7.3-3.2,3.7-5.6C347.6,28.5,343.8,34.1,347.4,36.5z"/>
		<path class="st1" d="M207.3,55.1c3.6,2.4,7.3-3.2,3.7-5.6C207.4,47.2,203.7,52.7,207.3,55.1z"/>
		<path class="st1" d="M53.3,193.3c3.6,2.4,7.3-3.2,3.7-5.6C53.4,185.3,49.7,190.9,53.3,193.3z"/>
		<path class="st1" d="M27,157.6c3.6,2.4,7.3-3.2,3.7-5.6C27.1,149.6,23.4,155.2,27,157.6z"/>
		<path class="st1" d="M420.6,127.8c3.6,2.4,7.3-3.2,3.7-5.6C420.7,119.8,417,125.4,420.6,127.8z"/>
		<path class="st1" d="M374.9,165.7c3.6,2.4,7.3-3.2,3.7-5.6C375,157.8,371.3,163.3,374.9,165.7z"/>
		<path class="st1" d="M65.7,375.9c3.6,2.4,7.3-3.2,3.7-5.6C65.8,368,62.1,373.5,65.7,375.9z"/>
		<path class="st1" d="M448.8,332.8c3.6,2.4,7.3-3.2,3.7-5.6C448.9,324.9,445.2,330.4,448.8,332.8z"/>
		<path class="st1" d="M176.8,348.4c1.1,0.2,1.9-0.1,2.4-0.6c4.5-2,7.7-6.6,7.1-11.6c-0.6-5.2-5.2-8.5-10.3-8.5
			c-5.3,0.1-11,4.4-11.6,9.9C163.7,344.7,171.1,347.5,176.8,348.4z"/>
		<path class="st1" d="M247.5,106.3c1.1,0.2,1.9-0.1,2.4-0.6c4.5-2,7.7-6.6,7.1-11.6c-0.6-5.2-5.2-8.5-10.3-8.5
			c-5.3,0.1-11,4.4-11.6,9.9C234.4,102.6,241.8,105.4,247.5,106.3z"/>
		<path class="st1" d="M359.3,374.8c5.3,1.1,10.4-1,12.4-5.4c2.1-2.4,2.9-5.6,1.5-9.1c-1.9-4.5-6.9-7.8-11.7-8
			c-6.1-0.3-11.4,4.8-12,10.7C348.8,369,353.8,373.6,359.3,374.8z"/>
		<path class="st1" d="M411.6,328.3c5.3,1.1,10.4-1,12.4-5.4c2.1-2.4,2.9-5.6,1.5-9.1c-1.9-4.5-6.9-7.8-11.7-8
			c-6.1-0.3-11.4,4.8-12,10.7C401.2,322.5,406.1,327.1,411.6,328.3z"/>
		<path class="st1" d="M187.6,243.5c7.9,9.5,22.1,4.2,26.2-6.1c2.3-5.8,0.3-11.9-5-15.2c-6.1-4-14.2-6.6-20-0.6
			C183.6,227.1,182.6,237.6,187.6,243.5z"/>
		<path class="st1" d="M178.5,112c7.9,9.6,22.1,4.2,26.2-6.1c2.3-5.8,0.3-11.9-5-15.2c-6.1-4-14.2-6.6-20-0.6
			C174.5,95.6,173.6,106,178.5,112z"/>
		<path class="st1" d="M151.7,233.9c3.1,1.7,6.5,1,8.4-1.5c0.2,0,0.4,0,0.6,0c1.2-0.1,2.1-1.2,2.5-2.2c1.7-4.2-0.4-8.7-4.6-10.3
			c-4.2-1.6-9.1,0.3-10.8,4.5C146.4,228,148.4,232.1,151.7,233.9z"/>
		<path class="st1" d="M159.6,297c-3.8-2.3-8.4-1.5-10.8,2.3c-2.3,3.6-1.4,8.5,2.2,10.8c3.7,2.4,8.4,1,10.8-2.5
			C164.2,304.1,163.4,299.3,159.6,297z"/>
		<path class="st1" d="M366,264.7c-3.8-2.3-8.4-1.5-10.8,2.3c-2.3,3.6-1.4,8.5,2.2,10.8c3.7,2.4,8.4,1,10.8-2.5
			C370.6,271.7,369.8,266.9,366,264.7z"/>
		<path class="st1" d="M189.2,320.7c3.6,2.4,7.3-3.2,3.7-5.6C189.3,312.7,185.6,318.3,189.2,320.7z"/>
		<path class="st1" d="M182.6,167.3c3.6,2.4,7.3-3.2,3.7-5.6C182.7,159.3,179,164.9,182.6,167.3z"/>
		<path class="st1" d="M186,383.4c3.6,2.4,7.3-3.2,3.7-5.6C186.1,375.5,182.4,381.1,186,383.4z"/>
		<path class="st1" d="M120.6,343.9c3.6,2.4,7.3-3.2,3.7-5.6C120.7,335.9,117,341.5,120.6,343.9z"/>
		<path class="st1" d="M90.7,193.5c3.6,2.4,7.3-3.2,3.7-5.6C90.8,185.6,87.1,191.1,90.7,193.5z"/>
		<path class="st1" d="M266.9,188.4c3.6,2.4,7.3-3.2,3.7-5.6C267,180.5,263.3,186,266.9,188.4z"/>
		<path class="st1" d="M296.4,323.1c0.6,3.6,3.7,5.5,7,6.4c0.3,0.1,0.7,0.2,1.1,0.2c0.5,0.1,1.1,0,1.5-0.3c3.3-1.1,5.4-4.2,4.6-7.7
			c-0.9-3.7-4.1-6.2-7.9-5.8C299,316.3,295.8,319.2,296.4,323.1z"/>
		<path class="st1" d="M257.8,245.1c1.4,3.4,4.9,5.1,8.4,5.6c0.4,0.1,0.7,0.1,1.2,0.1c0.5,0,1-0.1,1.4-0.3c3.1-1.1,5.1-3.8,4.8-7.2
			c-0.2-3.2-2.2-6.2-5.2-7.6c-2.8-1.4-6.7-1-8.9,1.3C257.2,239,256.6,242.2,257.8,245.1z"/>
		<path class="st1" d="M225.2,190.5c3.6,2.4,7.3-3.2,3.7-5.6C225.3,182.5,221.6,188.1,225.2,190.5z"/>
		<path class="st1" d="M317.5,293.7c3.6,2.4,7.3-3.2,3.7-5.6C317.7,285.7,313.9,291.3,317.5,293.7z"/>
		<path class="st1" d="M360.4,333c0.8,0.5,1.6,0.7,2.5,0.5l1.6-0.3c0.8-0.2,1.7-0.7,2.1-1.4c0.5-0.7,0.7-1.7,0.5-2.5
			c-0.2-0.8-0.7-1.7-1.4-2.1c-0.8-0.5-1.6-0.7-2.5-0.5c-0.5,0.1-1,0.2-1.6,0.3c-0.8,0.2-1.7,0.7-2.1,1.4c-0.5,0.7-0.7,1.7-0.5,2.5
			C359.2,331.7,359.7,332.5,360.4,333z"/>
		<path class="st1" d="M319.5,361.9c3.6,2.4,7.3-3.2,3.7-5.6C319.6,353.9,315.9,359.5,319.5,361.9z"/>
		<path class="st1" d="M268.9,312.8c3.6,2.4,7.3-3.2,3.7-5.6C269.1,304.8,265.3,310.4,268.9,312.8z"/>
		<path class="st1" d="M403.6,383.4c3.6,2.4,7.3-3.2,3.7-5.6C403.8,375.5,400,381.1,403.6,383.4z"/>
		<path class="st1" d="M347.4,409c3.6,2.4,7.3-3.2,3.7-5.6C347.6,401.1,343.8,406.6,347.4,409z"/>
		<path class="st1" d="M87,39.9c3.6,2.4,7.3-3.2,3.7-5.6C87.2,31.9,83.4,37.5,87,39.9z"/>
		<path class="st1" d="M247.4,397.7c-4.1,3-4.9,8.5-2.4,12.8c2.3,4.1,6.7,7.2,11.6,6.2c3.8-0.8,7-3.9,8.5-7.4
			c1.7-4.1,0.6-8.1-3-10.4c-0.1,0-0.1-0.1-0.2-0.1C257.7,395.4,251.8,394.4,247.4,397.7z"/>
		<path class="st1" d="M223.2,294.4c-4.1,3-4.9,8.5-2.4,12.8c2.3,4.1,6.7,7.2,11.6,6.2c3.8-0.8,7-3.9,8.5-7.4
			c1.7-4.1,0.6-8.1-3-10.4c-0.1,0-0.1-0.1-0.2-0.1C233.6,292.1,227.7,291.2,223.2,294.4z"/>
		<path class="st1" d="M236.2,384.3c3.6,2.4,7.3-3.2,3.7-5.6C236.3,376.4,232.6,381.9,236.2,384.3z"/>
		<path class="st1" d="M271.8,366.8c3.6,2.4,7.3-3.2,3.7-5.6C271.9,358.8,268.2,364.4,271.8,366.8z"/>
		<path class="st1" d="M310.8,255.3c3.6,2.4,7.3-3.2,3.7-5.6C311,247.4,307.2,252.9,310.8,255.3z"/>
		<path class="st1" d="M301.4,419.5c3.6,2.4,7.3-3.2,3.7-5.6C301.5,411.6,297.8,417.1,301.4,419.5z"/>
		<path class="st1" d="M198.7,418.1c0.3,2.6,2,5.1,4.5,6.1c0.8,0.3,1.6,0.4,2.5,0.3c2,0.4,4,0.1,5.5-1.4c1.6-1.6,2.1-3.8,1.9-5.9
			c-0.5-4.3-4.3-7.1-8.6-6.3C200.8,411.5,198.3,414.4,198.7,418.1z"/>
		<path class="st1" d="M136.1,404.7c-4.7-3.5-12-2.9-15,2.4c-3.2,5.6-0.1,12.2,5.2,15.1c4.3,2.9,9.3-0.1,11.6-4
			C140.5,413.8,140.5,408,136.1,404.7z"/>
		<path class="st1" d="M169.6,433.4c3.6,2.4,7.3-3.2,3.7-5.6C169.7,425.5,166,431,169.6,433.4z"/>
		<path class="st1" d="M197.1,152.8c3.6,2.4,7.3-3.2,3.7-5.6C197.2,144.8,193.5,150.4,197.1,152.8z"/>
		<path class="st1" d="M100.3,378.2c-1.2-0.9-2.7-1.6-4.1-1.9c-2.2-0.5-4.6-0.4-6.2,1.4c-2.1,2.3-1.1,5.5,0.3,8
			c0.5,0.8,1.1,1.4,2,1.7c0.8,0.3,1.8,0.2,2.5-0.2c0,0,0.1,0,0.1,0c0.3,0.2,0.7,0.2,1.1,0.2c2.7-0.1,5.7-0.6,6.8-3.4
			C103.7,381.6,102.1,379.5,100.3,378.2z"/>
		<path class="st1" d="M66.6,156.4c4.1,0,8-2,9.3-6.1c1.1-3.5,0.2-7.8-2.5-10.4c-3.5-3.4-8.8-3.4-12.7-0.8
			c-3.8,2.5-5.8,7.2-4.8,11.6C57.1,155.8,61.9,158.3,66.6,156.4z"/>
	</g>
</g>
</svg>
